<svg xmlns="http://www.w3.org/2000/svg" width="54.325" height="32.077" viewBox="0 0 54.325 32.077">
  <g id="Arrow" transform="translate(-96 -190.423)">
    <rect id="Rectangle_7" data-name="Rectangle 7" width="54.325" height="8.3" rx="4.15" transform="translate(96 202.282)" fill="#fff"/>
    <path id="Rectangle_8" data-name="Rectangle 8" d="M4.024,0H21.63a0,0,0,0,1,0,0V8.048a0,0,0,0,1,0,0H4.024A4.024,4.024,0,0,1,0,4.024v0A4.024,4.024,0,0,1,4.024,0Z" transform="matrix(0.819, 0.574, -0.574, 0.819, 130.393, 190.423)" fill="#fff"/>
    <path id="Rectangle_9" data-name="Rectangle 9" d="M4.024,0H21.63a0,0,0,0,1,0,0V8.048a0,0,0,0,1,0,0H4.024A4.024,4.024,0,0,1,0,4.024v0A4.024,4.024,0,0,1,4.024,0Z" transform="matrix(0.819, -0.574, 0.574, 0.819, 125.777, 215.907)" fill="#fff"/>
  </g>
</svg>
